<?xml version="1.0" encoding="UTF-8" standalone="no"?>
<!-- Created with Inkscape (http://www.inkscape.org/) -->

<svg
   xmlns:dc="http://purl.org/dc/elements/1.1/"
   xmlns:cc="http://creativecommons.org/ns#"
   xmlns:rdf="http://www.w3.org/1999/02/22-rdf-syntax-ns#"
   xmlns:svg="http://www.w3.org/2000/svg"
   xmlns="http://www.w3.org/2000/svg"
   xmlns:sodipodi="http://sodipodi.sourceforge.net/DTD/sodipodi-0.dtd"
   xmlns:inkscape="http://www.inkscape.org/namespaces/inkscape"
   width="95.044395mm"
   height="119.21872mm"
   viewBox="0 0 336.77148 422.42853"
   id="svg2"
   version="1.1"
   inkscape:version="0.91 r13725"
   sodipodi:docname="logo_daan_2.svg">
  <defs
     id="defs4" />
  <sodipodi:namedview
     id="base"
     pagecolor="#ffffff"
     bordercolor="#666666"
     borderopacity="1.0"
     inkscape:pageopacity="0.0"
     inkscape:pageshadow="2"
     inkscape:zoom="1.4"
     inkscape:cx="119.89632"
     inkscape:cy="258.6287"
     inkscape:document-units="px"
     inkscape:current-layer="g4305"
     showgrid="false"
     inkscape:window-width="2498"
     inkscape:window-height="1417"
     inkscape:window-x="54"
     inkscape:window-y="-8"
     inkscape:window-maximized="1"
     fit-margin-top="0"
     fit-margin-left="0"
     fit-margin-right="0"
     fit-margin-bottom="0" />
  <metadata
     id="metadata7">
    <rdf:RDF>
      <cc:Work
         rdf:about="">
        <dc:format>image/svg+xml</dc:format>
        <dc:type
           rdf:resource="http://purl.org/dc/dcmitype/StillImage" />
        <dc:title />
      </cc:Work>
    </rdf:RDF>
  </metadata>
  <g
     inkscape:label="Layer 1"
     inkscape:groupmode="layer"
     id="layer1"
     transform="translate(-0.92856911,-1.1479448)" />
  <g
     inkscape:groupmode="layer"
     id="layer2"
     inkscape:label="Layer 2"
     transform="translate(-0.92856911,-1.1479448)">
    <g
       id="g4305"
       transform="translate(-555.71428,-188.57143)">
      <path
         inkscape:connector-curvature="0"
         id="path4303"
         d="m 684.64286,329.8622 5.71428,175.71429 40.35715,35.35714 32.85714,-48.21428 1.78571,-162.85715 z"
         style="fill:#ffffff;fill-opacity:1;fill-rule:evenodd;stroke:#ffffff;stroke-width:1px;stroke-linecap:butt;stroke-linejoin:miter;stroke-opacity:1" />
      <g
         style="fill:#000000;fill-opacity:1"
         id="g3430">
        <path
           inkscape:connector-curvature="0"
           id="path3426"
           d="m 686.48576,330.21936 7.85714,165.71428 30.71428,35.71428 0,80 -99.99999,0 -67.85715,-123.57142 70,-158.57143 z"
           style="fill:#000000;fill-opacity:1;fill-rule:evenodd;stroke:#000000;stroke-width:1px;stroke-linecap:butt;stroke-linejoin:miter;stroke-opacity:1"
           sodipodi:nodetypes="cccccccc" />
        <path
           sodipodi:nodetypes="cccccccc"
           style="fill:#000000;fill-opacity:1;fill-rule:evenodd;stroke:#000000;stroke-width:1px;stroke-linecap:butt;stroke-linejoin:miter;stroke-opacity:1"
           d="M 763.57142,330.21936 755.71428,495.93364 725,531.64792 l 0,80 99.99999,0 67.85715,-123.57142 -70,-158.57143 z"
           id="path3428"
           inkscape:connector-curvature="0" />
      </g>
      <ellipse
         ry="66.446274"
         rx="79.303413"
         cy="256.64795"
         cx="725.71429"
         id="path3434"
         style="fill:#254971;fill-opacity:1;fill-rule:evenodd;stroke:#254971;stroke-width:0.96460122px;stroke-linecap:butt;stroke-linejoin:miter;stroke-opacity:1" />
      <g
         style="fill:#254971;fill-opacity:1"
         transform="matrix(1.1411071,0,0,1.0142446,-102.39614,-5.0720468)"
         id="g3446">
        <g
           style="fill:#254971;fill-opacity:1"
           id="g3440">
          <path
             sodipodi:nodetypes="ccccccccc"
             inkscape:connector-curvature="0"
             id="path3436"
             d="m 690,330.21935 8.57143,163.57143 5.96727,8.06339 8.31844,-130.92054 12.05358,-0.66964 -0.0446,-15.75893 -9.86608,0 -6.38393,-24.24107 z"
             style="fill:#254971;fill-opacity:1;fill-rule:evenodd;stroke:#254971;stroke-width:1px;stroke-linecap:butt;stroke-linejoin:miter;stroke-opacity:1" />
          <path
             sodipodi:nodetypes="ccccccccc"
             style="fill:#254971;fill-opacity:1;fill-rule:evenodd;stroke:#254971;stroke-width:1px;stroke-linecap:butt;stroke-linejoin:miter;stroke-opacity:1"
             d="m 759.68844,330.21935 -8.57143,163.57143 -6.34674,8.44441 -7.93897,-131.30156 -12.09822,-0.71428 0.0446,-15.71429 9.91072,-4e-5 6.42857,-24.33036 z"
             id="path3438"
             inkscape:connector-curvature="0" />
        </g>
        <rect
           style="fill:#254971;fill-opacity:1"
           id="rect3444"
           width="3.9732056"
           height="14.821428"
           x="723.25891"
           y="354.99612"
           ry="0" />
      </g>
      <g
         transform="translate(366.1803,-107.07617)"
         id="g4277">
        <path
           style="fill:#000000;fill-opacity:1;fill-rule:evenodd;stroke:#000000;stroke-width:1px;stroke-linecap:butt;stroke-linejoin:miter;stroke-opacity:1"
           d="m 281.58002,327.07267 -0.12627,7.32361 c 3.28306,3.17781 4.7045,5.19211 5.30331,6.69226 3.00543,11.65884 4.62987,18.26692 9.97526,26.89531 11.25585,12.77924 38.00068,6.98574 41.41625,2.90419 9.42847,-7.31261 12.83043,-19.00161 17.9302,-29.92577 2.05947,-0.25379 4.4073,-0.58243 8.71257,0.12627 3.20356,9.77114 7.30591,18.80066 12.12183,25.25381 13.47534,13.64665 39.94071,12.35638 48.10852,-2.14657 3.63464,-7.26169 4.68118,-15.04101 6.81852,-22.60216 2.62424,-3.97893 3.56074,-4.16045 4.9245,-5.30331 l -0.25254,-8.71256 c -10.63516,-2.6772 -21.05911,-6.41047 -32.32488,-5.93465 -14.34833,1.15754 -26.39382,3.8503 -38.81341,6.29366 -8.32607,0.20269 -7.43179,-0.13698 -10.68407,-0.23275 -15.5927,-3.4871 -31.43271,-6.78516 -45.07806,-6.31345 -11.28003,1.64446 -5.60572,0.75391 -28.03173,5.68211 z"
           id="path3471"
           inkscape:connector-curvature="0"
           sodipodi:nodetypes="ccccccccccccccccc" />
        <path
           style="fill:#101010;fill-opacity:1;fill-rule:evenodd;stroke:#000000;stroke-width:1px;stroke-linecap:butt;stroke-linejoin:miter;stroke-opacity:1"
           d="m 292.06036,338.68943 c -0.79838,29.10538 23.72428,39.11311 41.41625,30.05204 8.28256,-4.11904 28.32651,-38.53894 3.91434,-41.79506 -14.23759,-1.94509 -46.32898,-7.97732 -45.33059,11.74302 z"
           id="path4273"
           inkscape:connector-curvature="0"
           sodipodi:nodetypes="cccc" />
        <path
           sodipodi:nodetypes="cccc"
           inkscape:connector-curvature="0"
           id="path4275"
           d="m 427.61812,339.06824 c 0.79838,29.10538 -23.72428,39.11311 -41.41625,30.05204 -8.28256,-4.11904 -28.32651,-38.53894 -3.91434,-41.79506 14.23759,-1.94509 46.32898,-7.97732 45.33059,11.74302 z"
           style="fill:#101010;fill-opacity:1;fill-rule:evenodd;stroke:#000000;stroke-width:1px;stroke-linecap:butt;stroke-linejoin:miter;stroke-opacity:1" />
      </g>
      <g
         transform="translate(345,-116.42857)"
         id="g4298">
        <path
           style="fill:none;fill-rule:evenodd;stroke:#000000;stroke-width:1px;stroke-linecap:butt;stroke-linejoin:miter;stroke-opacity:0"
           d="m 442.94643,526.7372 0,21.60715 c 8.49194,10.59688 17.07386,12.46663 25.80357,0 l 0,-21.78572 z"
           id="path4290"
           inkscape:connector-curvature="0"
           sodipodi:nodetypes="ccccc" />
        <path
           style="fill:none;fill-rule:evenodd;stroke:#000000;stroke-width:1px;stroke-linecap:butt;stroke-linejoin:miter;stroke-opacity:0"
           d="m 441.875,524.58537 28.03572,0 z"
           id="path4292"
           inkscape:connector-curvature="0" />
        <path
           style="fill:#ffffff;fill-opacity:1;fill-rule:evenodd;stroke:#ffffff;stroke-width:1px;stroke-linecap:butt;stroke-linejoin:miter;stroke-opacity:1"
           d="m 443.125,522.45149 8.48214,-9.91072 4.46429,6.78572 5.08929,-6.78572 7.41071,9.82143 z"
           id="path4296"
           inkscape:connector-curvature="0" />
      </g>
    </g>
  </g>
</svg>
